# xmcd
#
# Track frame offsets: 
#        150
#        13993
#        26149
#        37929
#        53894
#        67737
#        81281
#        96699
#        111704
#        130610
#        143815
#        158520
#        171313
#        185981
#        200236
#
# Disc length: 2817 seconds
#
# Revision: 0
# Processed by: cddbd v1.5.2PL0 Copyright (c) Steve Scherf et al.
# Submitted via: ExactAudioCopy v0.95b4
#
DISCID=df0aff0f
DTITLE=Guy Clark - Craftsman - Disk II
DYEAR=1995
DGENRE=Texas Country
TTITLE0=Heartbroke
TTITLE1=The Partner Nobody Chose
TTITLE2=She's Crazy For Leavin'
TTITLE3=Calf-Rope
TTITLE4=Lone Star Hotel
TTITLE5=Blowin' Like A Bandit
TTITLE6=Better Days
TTITLE7=Homegrown Tomatoes
TTITLE8=Supply And Demand
TTITLE9=Randall Knife
TTITLE10=The Carpenter
TTITLE11=Uncertain Texas
TTITLE12=No Deal
TTITLE13=Tears
TTITLE14=Fool In The Mirror
EXTD=
EXTT0=
EXTT1=
EXTT2=
EXTT3=
EXTT4=
EXTT5=
EXTT6=
EXTT7=
EXTT8=
EXTT9=
EXTT10=
EXTT11=
EXTT12=
EXTT13=
EXTT14=
PLAYORDER=
